<svg width="143" height="34" viewBox="0 0 143 34" fill="none" xmlns="http://www.w3.org/2000/svg">
<path d="M33.4776 31.7374H25.5722L23.1537 25.9042H9.97852L7.77517 31.7374H0L11.8786 2.27637H20.3886L33.4776 31.7374ZM16.2418 9.31619L11.9223 20.7631H20.9939L16.2418 9.31619Z" fill="#232425"/>
<path d="M62.1943 2.27637H68.5873V31.7374H61.243V13.3352L53.2948 22.5785H52.1721L44.2245 13.3352V31.7371H36.8801V2.27637H43.2732L52.733 13.2051L62.1943 2.27637Z" fill="#232425"/>
<path d="M87.196 2.27637C97.9515 2.27637 103.48 8.97106 103.48 17.049C103.48 25.5155 98.1242 31.7374 86.3747 31.7374H74.1929V2.27637H87.196ZM81.5367 26.3377H86.3307C93.7175 26.3377 95.9208 21.3258 95.9208 17.0053C95.9208 11.9507 93.199 7.67535 86.2443 7.67535H81.5365V26.3377H81.5367Z" fill="#232425"/>
<path d="M118.091 9.26189L108.831 0H142.543V33.7131L133.282 24.4523V9.26189H118.091Z" fill="#232425"/>
<path d="M118.08 11.1179L108.546 20.6515V33.9969H121.89L131.423 24.4633H118.08V11.1179Z" fill="#232425"/>
</svg>
