<svg width="76" height="90" viewBox="0 0 76 90" fill="none" xmlns="http://www.w3.org/2000/svg">
<path d="M74.22 70.1373C72.8589 73.2817 71.2478 76.176 69.3812 78.8371C66.8369 82.4647 64.7536 84.9758 63.1481 86.3702C60.6593 88.659 57.9927 89.8312 55.1372 89.8978C53.0873 89.8978 50.6151 89.3145 47.7374 88.1312C44.8503 86.9535 42.1971 86.3702 39.771 86.3702C37.2267 86.3702 34.4978 86.9535 31.579 88.1312C28.6558 89.3145 26.3009 89.9312 24.5004 89.9923C21.7621 90.1089 19.0328 88.9034 16.3084 86.3702C14.5696 84.8536 12.3946 82.2536 9.78915 78.5704C6.99368 74.6372 4.69541 70.0762 2.89491 64.8764C0.966637 59.2599 0 53.8212 0 48.5558C0 42.5243 1.30329 37.3222 3.91377 32.9629C5.96537 29.4613 8.69474 26.6992 12.1107 24.6715C15.5268 22.6438 19.2178 21.6105 23.1926 21.5444C25.3676 21.5444 28.2197 22.2171 31.764 23.5393C35.2984 24.8659 37.5678 25.5387 38.5627 25.5387C39.3066 25.5387 41.8276 24.752 46.1014 23.1838C50.1429 21.7294 53.5539 21.1271 56.3483 21.3644C63.9203 21.9755 69.609 24.9604 73.3922 30.338C66.6202 34.4412 63.2703 40.1882 63.337 47.5608C63.3981 53.3034 65.4813 58.0821 69.5757 61.8765C71.4312 63.6375 73.5033 64.9986 75.8088 65.9652C75.3088 67.4152 74.7811 68.804 74.22 70.1373ZM56.8538 1.80051C56.8538 6.30154 55.2094 10.5041 51.9318 14.394C47.9763 19.0183 43.192 21.6905 38.0038 21.2688C37.9377 20.7288 37.8994 20.1605 37.8994 19.5633C37.8994 15.2423 39.7805 10.618 43.1209 6.83702C44.7886 4.92264 46.9097 3.33085 49.4818 2.06106C52.0484 0.810206 54.4761 0.118459 56.7594 0C56.8261 0.601717 56.8538 1.20347 56.8538 1.80045V1.80051Z" fill="#232425"/>
</svg>
