<svg width="142" height="50" viewBox="0 0 142 50" fill="none" xmlns="http://www.w3.org/2000/svg">
<path d="M26.7615 22.3879V31.5132C26.7615 33.8536 27.8963 34.9884 30.2367 34.9884H31.2533C33.5937 34.9884 34.7285 33.8536 34.7285 31.5132V27.0451H40.0713V31.3241C40.0713 37.187 37.1162 40.213 31.1824 40.213H30.0476C24.1847 40.213 21.1587 37.2579 21.1587 32.0333V9.62186C21.1587 3.07338 24.1138 0.0473633 30.0476 0.0473633H31.1824C37.0453 0.0473633 40.0713 3.00246 40.0713 8.93628V22.3406H26.7852V22.3879H26.7615ZM26.7615 17.0214H34.6339V8.69987C34.6339 6.35944 33.4992 5.22469 31.1587 5.22469H30.284C27.9436 5.22469 26.8088 6.35944 26.8088 8.69987V17.0214H26.7615Z" fill="black"/>
<path d="M43.7117 0.520013H49.2436V3.04957C50.5675 1.65477 52.837 0.0944824 55.9812 0.0944824C60.7094 0.0944824 63.0261 3.2387 63.0261 7.84864V32.4114C63.0261 37.0686 60.6857 40.1655 55.9812 40.1655C52.7661 40.1655 50.5675 38.6525 49.2436 37.3286V50.0001H43.7117V0.520013ZM49.2436 32.9078C50.7566 34.2317 52.5297 34.9173 54.35 34.9173C56.3595 34.9173 57.5651 33.9716 57.5651 31.7021V8.53422C57.5651 6.26471 56.4304 5.31908 54.35 5.31908C52.5297 5.31908 50.7566 6.07559 49.2436 7.32854V32.9078Z" fill="black"/>
<path d="M66.3831 26.0994C66.3831 21.253 67.967 19.2908 72.175 17.8488L79.5982 15.3192V8.69979C79.5982 6.35936 78.4635 5.1064 76.123 5.1064H75.2483C72.9079 5.1064 71.7731 6.35936 71.7731 8.69979V14.2317H66.4303V8.88891C66.4303 3.02601 69.3854 0 75.3193 0H76.3831C82.246 0 85.272 2.95509 85.272 8.88891V39.6928H79.7401V37.2342C78.2271 38.6762 76.1467 40.142 73.0025 40.142C68.5816 40.142 66.5249 37.6124 66.5249 33.2152V26.0994H66.3831ZM79.6219 33.097V20.1892L74.5864 22.0804C72.5769 22.9079 71.8677 23.9008 71.8677 26.1703V32.1514C71.8677 34.0427 72.8133 34.9883 74.5864 34.9883C76.2649 34.9174 77.7779 34.35 79.6219 33.097Z" fill="black"/>
<path d="M107.447 39.7163H101.915V8.15597C101.915 6.19379 100.97 5.31908 99.2675 5.31908C97.7545 5.31908 96.1233 5.88646 94.1611 7.28126V39.7163H88.6292V0.520013H94.1611V3.04957C95.745 1.53657 97.8727 0.0944824 100.899 0.0944824C103.736 0.0944824 105.627 1.22924 106.62 3.30962C108.582 1.60749 110.899 0.0944824 114.114 0.0944824C118.393 0.0944824 120.591 2.74224 120.591 7.02121V39.7636H115.059V8.15597C115.059 6.19379 114.114 5.31908 112.412 5.31908C110.899 5.31908 109.268 5.88646 107.305 7.28126V39.7163H107.447Z" fill="black"/>
<path d="M14.1608 4.11353V11.3476L4.89363 20.1656L14.1608 28.8654V36.2413L0 22.8843V17.5887L14.1608 4.11353Z" fill="#00B5D1"/>
<path d="M141.845 17.5887V22.8843L127.684 36.2413V28.8654L136.951 20.1656L127.684 11.3003V4.11353L141.845 17.5887Z" fill="#00B5D1"/>
</svg>
