<svg width="90" height="90" viewBox="0 0 90 90" fill="none" xmlns="http://www.w3.org/2000/svg">
<path d="M90 45C90 20.1445 69.8555 0 45 0C20.1445 0 0 20.1445 0 45C0 67.4648 16.4531 86.0801 37.9688 89.4551V58.0078H26.543V45H37.9688V35.0859C37.9688 23.8096 44.6836 17.5781 54.9668 17.5781C59.8887 17.5781 65.0391 18.457 65.0391 18.457V29.5312H59.3613C53.7715 29.5312 52.0312 33.0029 52.0312 36.5625V45H64.5117L62.5166 58.0078H52.0312V89.4551C73.5469 86.0801 90 67.4648 90 45Z" fill="#1877F2"/>
<path d="M62.5166 58.0078L64.5117 45H52.0312V36.5625C52.0312 33.0029 53.7715 29.5312 59.3613 29.5312H65.0391V18.457C65.0391 18.457 59.8887 17.5781 54.9668 17.5781C44.6836 17.5781 37.9688 23.8096 37.9688 35.0859V45H26.543V58.0078H37.9688V89.4551C40.2627 89.8154 42.6094 90 45 90C47.3906 90 49.7373 89.8154 52.0312 89.4551V58.0078H62.5166Z" fill="white"/>
</svg>
