<svg width="185" height="60" viewBox="0 0 185 60" fill="none" xmlns="http://www.w3.org/2000/svg">
<path d="M23.0522 20.475V26.625H37.7216C37.2726 30.075 36.125 32.6 34.3786 34.375C32.2331 36.525 28.89 38.875 23.0522 38.875C14.021 38.875 6.96073 31.575 6.96073 22.525C6.96073 13.475 14.021 6.175 23.0522 6.175C27.9171 6.175 31.4846 8.1 34.1042 10.575L38.4202 6.25C34.7778 2.7 29.888 0 23.0522 0C10.678 0 0.274658 10.1 0.274658 22.5C0.274658 34.9 10.678 45 23.0522 45C29.7383 45 34.7778 42.8 38.7196 38.7C42.7611 34.65 44.0335 28.925 44.0335 24.325C44.0335 22.9 43.9337 21.575 43.7092 20.475H23.0522Z" fill="#4285F4"/>
<path d="M62.3699 15.4749C54.3616 15.4749 47.8252 21.5749 47.8252 29.9999C47.8252 38.3498 54.3616 44.5248 62.3699 44.5248C70.3782 44.5248 76.9146 38.3748 76.9146 29.9999C76.9146 21.5749 70.3782 15.4749 62.3699 15.4749ZM62.3699 38.7998C57.979 38.7998 54.1869 35.1748 54.1869 29.9999C54.1869 24.7749 57.979 21.1999 62.3699 21.1999C66.7607 21.1999 70.5529 24.7749 70.5529 29.9999C70.5529 35.1748 66.7607 38.7998 62.3699 38.7998Z" fill="#EA4335"/>
<path d="M133.672 18.7249H133.447C132.025 17.0249 129.281 15.4749 125.813 15.4749C118.578 15.4749 112.266 21.7999 112.266 29.9999C112.266 38.1499 118.578 44.5249 125.813 44.5249C129.281 44.5249 132.025 42.9749 133.447 41.2249H133.672V43.2499C133.672 48.7999 130.703 51.7748 125.938 51.7748C122.046 51.7748 119.626 48.9748 118.628 46.5998L113.089 48.8998C114.686 52.7499 118.902 57.4749 125.938 57.4749C133.397 57.4749 139.709 53.0749 139.709 42.3499V16.2249H133.672V18.7249ZM126.362 38.7999C121.971 38.7999 118.628 35.0499 118.628 29.9999C118.628 24.8749 121.971 21.1999 126.362 21.1999C130.703 21.1999 134.096 24.9499 134.096 30.0499C134.121 35.1249 130.703 38.7999 126.362 38.7999Z" fill="#4285F4"/>
<path d="M94.8023 15.4749C86.794 15.4749 80.2576 21.5749 80.2576 29.9999C80.2576 38.3498 86.794 44.5248 94.8023 44.5248C102.811 44.5248 109.347 38.3748 109.347 29.9999C109.347 21.5749 102.811 15.4749 94.8023 15.4749ZM94.8023 38.7998C90.4114 38.7998 86.6193 35.1748 86.6193 29.9999C86.6193 24.7749 90.4114 21.1999 94.8023 21.1999C99.1931 21.1999 102.985 24.7749 102.985 29.9999C102.985 35.1748 99.1931 38.7998 94.8023 38.7998Z" fill="#FBBC05"/>
<path d="M144.698 0.599854H150.96V44.5249H144.698V0.599854Z" fill="#34A853"/>
<path d="M170.295 38.7998C167.052 38.7998 164.757 37.3249 163.26 34.3999L182.645 26.3749L181.996 24.7249C180.798 21.4749 177.106 15.4749 169.597 15.4749C162.137 15.4749 155.925 21.3499 155.925 29.9999C155.925 38.1498 162.063 44.5248 170.295 44.5248C176.932 44.5248 180.774 40.4498 182.37 38.0998L177.43 34.7999C175.784 37.1999 173.539 38.7998 170.295 38.7998ZM169.846 20.9249C172.416 20.9249 174.611 22.2499 175.335 24.1249L162.237 29.5498C162.237 23.4499 166.553 20.9249 169.846 20.9249Z" fill="#EA4335"/>
</svg>
