<svg width="242" height="60" viewBox="0 0 242 60" fill="none" xmlns="http://www.w3.org/2000/svg">
<path d="M78.4531 52V37.2344H78.5938L89.1406 52H93.0469V29.4531H88.5312V44.1406H88.4062L77.875 29.4531H73.9375V52H78.4531ZM101.047 52.2656C103.141 52.2656 105.219 51.2188 106.156 49.4375H106.25V52H110.656V40.4844C110.656 37.1094 107.859 34.8906 103.562 34.8906C99.125 34.8906 96.3594 37.125 96.1875 40.375H100.359C100.578 39.1406 101.656 38.2969 103.359 38.2969C105.078 38.2969 106.172 39.2031 106.172 40.7656V41.875L101.953 42.125C97.7812 42.375 95.4375 44.1406 95.4375 47.1875C95.4375 50.2031 97.8594 52.2656 101.047 52.2656ZM102.547 48.9688C101 48.9688 99.9688 48.1875 99.9688 46.9375C99.9688 45.75 100.938 44.9844 102.641 44.8594L106.172 44.6406V45.8594C106.172 47.6719 104.531 48.9688 102.547 48.9688ZM114.828 31.3906V35.25H112.469V38.6875H114.828V47.4844C114.828 50.75 116.359 52.0625 120.297 52.0625C121.219 52.0625 122 51.9844 122.469 51.875V48.5156C122.188 48.5625 121.766 48.5938 121.359 48.5938C120.016 48.5938 119.391 47.9844 119.391 46.7031V38.6875H122.484V35.25H119.391V31.3906H114.828ZM140.453 35.25H135.891V44.8438C135.891 47.0625 134.625 48.5156 132.594 48.5156C130.578 48.5156 129.469 47.3281 129.469 45.0938V35.25H124.906V46.0469C124.906 49.9531 127.312 52.3125 130.938 52.3125C133.469 52.3125 135.125 51.0938 135.953 48.9844H136.047V52H140.453V35.25ZM143.422 52H147.984V42.6406C147.984 40.2812 149.297 38.9062 151.547 38.9062C152.203 38.9062 152.828 39.0156 153.203 39.1719V35.1562C152.891 35.0625 152.438 34.9844 151.906 34.9844C149.938 34.9844 148.516 36.1406 147.922 38.2656H147.828V35.25H143.422V52ZM159.641 52.2656C161.734 52.2656 163.812 51.2188 164.75 49.4375H164.844V52H169.25V40.4844C169.25 37.1094 166.453 34.8906 162.156 34.8906C157.719 34.8906 154.953 37.125 154.781 40.375H158.953C159.172 39.1406 160.25 38.2969 161.953 38.2969C163.672 38.2969 164.766 39.2031 164.766 40.7656V41.875L160.547 42.125C156.375 42.375 154.031 44.1406 154.031 47.1875C154.031 50.2031 156.453 52.2656 159.641 52.2656ZM161.141 48.9688C159.594 48.9688 158.562 48.1875 158.562 46.9375C158.562 45.75 159.531 44.9844 161.234 44.8594L164.766 44.6406V45.8594C164.766 47.6719 163.125 48.9688 161.141 48.9688ZM172.312 52H176.875V29.4531H172.312V52ZM206.844 42.5312V39.9844H197.344V43.4219H202.25L202.234 43.7812C202.141 46.5781 200 48.4688 196.922 48.4688C193.172 48.4688 190.797 45.4844 190.797 40.5938C190.797 35.7969 193.031 32.9688 196.75 32.9688C199.297 32.9688 201.219 34.375 201.906 36.7344H206.641C205.969 32.1719 202 29.0625 196.734 29.0625C190.109 29.0625 185.984 33.4375 185.984 40.6562C185.984 47.9844 190.109 52.375 196.844 52.375C203.125 52.375 206.844 48.6719 206.844 42.5312ZM214.391 52.2656C216.484 52.2656 218.562 51.2188 219.5 49.4375H219.594V52H224V40.4844C224 37.1094 221.203 34.8906 216.906 34.8906C212.469 34.8906 209.703 37.125 209.531 40.375H213.703C213.922 39.1406 215 38.2969 216.703 38.2969C218.422 38.2969 219.516 39.2031 219.516 40.7656V41.875L215.297 42.125C211.125 42.375 208.781 44.1406 208.781 47.1875C208.781 50.2031 211.203 52.2656 214.391 52.2656ZM215.891 48.9688C214.344 48.9688 213.312 48.1875 213.312 46.9375C213.312 45.75 214.281 44.9844 215.984 44.8594L219.516 44.6406V45.8594C219.516 47.6719 217.875 48.9688 215.891 48.9688ZM226.672 40.1719C226.672 42.6875 228.312 44.3125 231.547 45L234.406 45.5938C236.047 45.9688 236.625 46.4688 236.625 47.3594C236.625 48.4531 235.562 49.1562 233.844 49.1562C232.031 49.1562 230.984 48.375 230.703 46.9062H226.25C226.547 50.2031 229.219 52.3594 233.844 52.3594C238.156 52.3594 241.172 50.1875 241.172 46.8906C241.172 44.4375 239.734 43.0625 236.234 42.3281L233.375 41.7188C231.688 41.3594 231.062 40.7812 231.062 39.9219C231.062 38.8125 232.109 38.0938 233.688 38.0938C235.375 38.0938 236.391 39.0156 236.531 40.375H240.734C240.641 37.0938 237.984 34.8906 233.688 34.8906C229.422 34.8906 226.672 36.9844 226.672 40.1719Z" fill="#232425"/>
<path d="M6.8349 23.5867C17.0209 11.5853 19.8556 4.50867 16.0962 0C16.0962 0 42.1449 19.1187 27.7996 38.7693C22.3662 46.2127 17.7916 48.8027 21.5276 60C21.5256 60 -14.6971 48.9567 6.8349 23.5867Z" fill="#528ECE"/>
<path d="M33.0705 52.8186C25.4732 58.024 24.4058 59.1406 24.3032 59.3833C24.3105 59.4046 24.3165 59.4273 24.3218 59.448C24.3218 59.448 24.2738 59.45 24.3032 59.3833C23.6618 57.0813 20.7052 51.8213 29.2985 42.3806C34.0518 37.1586 36.7812 25.6086 35.2998 22.856C35.2998 22.8566 49.4892 41.5966 33.0705 52.8186Z" fill="#528ECE"/>
</svg>
