<?xml version="1.0" encoding="UTF-8"?>
<svg width="215px" height="42px" viewBox="0 0 215 42" version="1.1" xmlns="http://www.w3.org/2000/svg" xmlns:xlink="http://www.w3.org/1999/xlink">
    <!-- Generator: Sketch 61.2 (89653) - https://sketch.com -->
    <title>logo-en</title>
    <desc>Created with Sketch.</desc>
    <g id="sources" stroke="none" stroke-width="1" fill="none" fill-rule="evenodd">
        <g id="Compliant-LP-Stocks" transform="translate(-215.000000, -3494.000000)" fill="#319B41" fill-rule="nonzero">
            <g id="footer/desktop" transform="translate(0.000000, 3459.000000)">
                <g id="footer">
                    <g id="Group" transform="translate(0.000000, 0.316503)">
                        <g id="Group-22" transform="translate(0.000000, 0.683497)">
                            <g id="logo-en" transform="translate(215.000000, 34.000000)">
                                <path d="M42.072228,19.6833285 C42.072228,31.3995825 32.671485,41.085 20.9590425,41.085 C9.400743,41.085 0,31.3995825 0,19.6833285 C0,19.2146625 0,18.7459965 0,18.27738 L12.791196,25.775739 L39.760578,9.9978615 C41.3016615,12.8097585 42.072228,16.2465435 42.072228,19.6833285 Z M12.791196,20.308167 L0.92466495,13.4346465 C0.6164433,14.215707 0.46233198,14.996817 0.308221155,15.7778775 L12.791196,22.963842 L38.681775,7.9670745 C38.219445,7.3421865 37.757115,6.7172985 37.294785,6.09246 L12.791196,20.308167 Z M35.5995585,4.3740675 C34.983135,3.7491993 34.366662,3.2805531 33.7502385,2.81190195 L12.791196,14.996817 L2.7739899,9.060579 C2.3116599,9.8416395 2.00343825,10.4665275 1.6952166,11.247588 L12.791196,17.652492 L35.5995585,4.3740675 Z M12.791196,12.18492 L31.746825,1.24973145 C30.8221155,0.78108525 30.0515985,0.312433605 29.281032,0 L12.791196,9.529245 L5.54796,5.31135 C5.08563,5.936238 4.46921145,6.561126 4.0068765,7.1859645 L12.791196,12.18492 Z" id="Shape"></path>
                                <path d="M58.870053,17.8094565 C56.4042749,16.872174 53.6302788,15.6224475 53.6302788,11.560824 C53.6302788,7.8116049 56.0960483,5.15591993 62.106363,5.15591993 C65.496816,5.15591993 67.346136,5.93700525 67.9625595,6.24943935 C67.9625595,7.8116049 67.9625595,9.06133635 67.9625595,10.623492 L66.729663,10.623492 L66.421476,9.37377045 C65.805003,7.8116049 64.880343,6.5618685 62.4145995,6.5618685 C59.1782895,6.5618685 58.0994915,8.124039 58.0994915,9.99863865 C58.0994915,12.0294405 59.0241465,12.8105505 61.181703,13.591611 L64.109826,14.6851155 C67.346136,15.9348915 69.0413625,17.6532345 69.0413625,21.2462415 C69.0413625,24.5268045 66.883806,28.119762 60.257043,28.119762 C56.8665999,28.119762 54.554945,27.3387015 53.9385012,27.1824795 C53.9385012,25.620309 53.9385012,23.9019165 53.9385012,22.339746 L55.3255016,22.339746 L55.6337183,23.9019165 C56.0960483,25.620309 57.1748265,26.7138135 60.1029495,26.7138135 C62.8769295,26.7138135 64.572156,25.307865 64.572156,22.808412 C64.572156,20.9337975 63.647496,19.684071 61.7981265,18.9030105 L58.870053,17.8094565 Z M79.675002,5.62457016 C83.9900655,5.62457016 87.8428485,6.0932223 87.8428485,10.623492 C87.8428485,13.747833 85.839435,14.9975595 83.373642,15.4662255 C86.147622,15.6224475 88.613415,17.6532345 88.613415,20.9337975 C88.613415,26.401419 84.9147255,27.6511455 79.520859,27.6511455 L71.198919,27.6511455 L71.198919,27.0262575 C72.2776725,26.7138135 72.431766,26.401419 72.431766,25.307865 L72.431766,8.124039 C72.431766,6.8743026 72.2776725,6.5618685 71.198919,6.40565145 L71.198919,5.62457016 L79.675002,5.62457016 Z M77.209209,14.8413375 L79.212672,14.8413375 C81.6784155,14.8413375 83.0654055,13.904055 83.0654055,10.935936 C83.0654055,7.96782195 81.8325585,6.8743026 79.3667655,6.8743026 L78.596199,6.8743026 C77.5174455,6.8743026 77.209209,7.1867367 77.209209,8.124039 L77.209209,14.8413375 Z M77.209209,16.247286 L77.209209,24.3705825 C77.209209,25.776531 77.5174455,26.245197 79.058529,26.245197 L79.8290955,26.245197 C82.2948885,26.245197 83.835972,24.6830265 83.835972,21.2462415 C83.835972,17.9656785 82.6030755,16.247286 79.212672,16.247286 L77.209209,16.247286 L77.209209,16.247286 Z M98.476488,6.8743026 C97.551828,6.8743026 97.3977345,7.1867367 97.3977345,7.8116049 L97.3977345,14.6851155 L100.325808,14.6851155 C101.558705,14.6851155 103.407975,14.528943 104.17869,14.060277 L104.17869,16.872174 C103.407975,16.403508 101.558705,16.247286 100.325808,16.247286 L97.3977345,16.247286 L97.3977345,24.5268045 C97.3977345,25.932753 97.8600645,26.245197 100.788138,26.245197 L101.404611,26.245197 C104.17869,26.245197 104.94891,26.088975 105.56568,23.277078 L105.719625,22.495968 L107.106615,22.495968 C107.106615,24.2143605 107.106615,25.932753 107.106615,27.6511455 L91.387395,27.6511455 L91.387395,27.0262575 C92.466198,26.7138135 92.6202915,26.401419 92.6202915,25.307865 L92.6202915,8.124039 C92.6202915,6.8743026 92.466198,6.5618685 91.387395,6.40565145 L91.387395,5.62457016 L106.644285,5.62457016 C106.644285,7.1867367 106.644285,8.74890225 106.644285,10.46727 L105.41124,10.46727 L105.257295,9.37377045 C104.64102,7.03051965 103.71636,6.8743026 100.942281,6.8743026 L98.476488,6.8743026 Z M128.528235,27.6511455 L122.517945,27.6511455 C122.20956,26.401419 120.514185,22.0273515 119.89791,20.465181 L118.664865,17.497062 L116.045325,17.497062 L116.045325,25.151643 C116.045325,26.401419 116.19927,26.7138135 117.277875,26.8700355 L117.277875,27.4949235 L110.035035,27.4949235 L110.035035,26.8700355 C111.11364,26.5575915 111.267585,26.245197 111.267585,25.151643 L111.267585,7.96782195 C111.267585,6.71808555 111.11364,6.40565145 110.035035,6.24943935 L110.035035,5.62457016 L118.819305,5.62457016 C123.442605,5.62457016 126.678915,6.71808555 126.678915,11.404602 C126.678915,14.685165 124.829595,16.0911135 122.825835,16.872174 C123.442605,17.6532345 126.678915,24.9954705 128.528235,27.6511455 Z M118.04859,16.0911135 C121.130955,16.0911135 121.901175,14.528943 121.901175,11.404602 C121.901175,8.28025605 120.514185,6.8743026 118.51092,6.8743026 L117.432315,6.8743026 C116.507655,6.8743026 116.045325,7.03051965 116.045325,8.124039 L116.045325,16.0911135 L118.04859,16.0911135 Z M139.007385,5.62457016 C143.322795,5.62457016 147.17538,6.0932223 147.17538,10.623492 C147.17538,13.747833 145.172115,14.9975595 142.706025,15.4662255 C145.480005,15.6224475 147.946095,17.6532345 147.946095,20.9337975 C147.946095,26.401419 144.247455,27.6511455 138.85344,27.6511455 L130.5315,27.6511455 L130.5315,27.0262575 C131.610105,26.7138135 131.764545,26.401419 131.764545,25.307865 L131.764545,8.124039 C131.764545,6.8743026 131.610105,6.5618685 130.5315,6.40565145 L130.5315,5.62457016 L139.007385,5.62457016 Z M136.54179,14.8413375 L138.545055,14.8413375 C141.011145,14.8413375 142.398135,13.904055 142.398135,10.935936 C142.398135,7.96782195 141.16509,6.8743026 138.699495,6.8743026 L137.774835,6.8743026 C136.54179,6.8743026 136.387845,7.1867367 136.387845,8.124039 L136.387845,14.8413375 L136.54179,14.8413375 Z M136.54179,16.247286 L136.54179,24.3705825 C136.54179,25.776531 136.850175,26.245197 138.39111,26.245197 L139.161825,26.245197 C141.62742,26.245197 143.168355,24.6830265 143.168355,21.2462415 C143.168355,17.9656785 141.935805,16.247286 138.545055,16.247286 L136.54179,16.247286 L136.54179,16.247286 Z M163.9737,27.6511455 C163.81926,26.401419 163.04904,24.2143605 162.43227,22.495968 L161.50761,19.684071 L154.57266,19.684071 C153.80244,21.8711295 153.34011,23.7456945 153.031725,24.995421 C152.72334,26.245197 152.569395,27.1824795 152.569395,27.6511455 L148.56237,27.6511455 C149.0247,26.8700355 150.1038,24.8392485 151.644735,21.0900195 L155.65176,11.092158 C156.57642,8.9051193 156.730365,8.124039 156.730365,7.4991708 C156.730365,7.03051965 156.57642,6.40565145 155.49732,6.24943935 L155.49732,5.62457016 L161.815995,5.62457016 C161.96994,6.24943935 161.96994,7.03051965 162.58671,8.9051193 L167.21001,22.183524 C168.13467,24.8392485 169.05933,27.0262575 169.52166,27.8073675 L163.9737,27.8073675 L163.9737,27.6511455 Z M161.04528,18.2781225 L158.117355,9.37377045 L155.03499,18.2781225 L161.04528,18.2781225 Z M174.60729,9.5299875 L174.60729,25.307865 C174.60729,26.5575915 174.91518,26.8700355 176.148225,27.0262575 L176.148225,27.6511455 L170.90865,27.6511455 L170.90865,27.0262575 C172.1412,26.7138135 172.449585,26.401419 172.449585,25.307865 L172.449585,8.124039 C172.449585,6.8743026 172.1412,6.5618685 170.90865,6.40565145 L170.90865,5.62457016 L177.535215,5.62457016 C177.997545,6.40565145 178.922205,7.8116049 180.771525,10.623492 L187.398585,19.840293 L187.398585,7.96782195 C187.398585,6.71808555 187.0902,6.40565145 185.857155,6.24943935 L185.857155,5.62457016 L191.097225,5.62457016 L191.097225,6.24943935 C189.86418,6.5618685 189.555795,6.8743026 189.555795,7.96782195 L189.555795,27.8073675 L187.55253,27.8073675 L174.60729,9.5299875 Z M195.41214,7.96782195 C195.41214,6.71808555 195.258195,6.40565145 194.179095,6.24943935 L194.179095,5.62457016 L201.42243,5.62457016 L201.42243,6.24943935 C200.343825,6.5618685 200.189385,6.8743026 200.189385,7.96782195 L200.189385,25.151643 C200.189385,26.401419 200.343825,26.7138135 201.42243,26.8700355 L201.42243,27.4949235 L194.179095,27.4949235 L194.179095,26.8700355 C195.258195,26.5575915 195.41214,26.245197 195.41214,25.151643 L195.41214,7.96782195 Z M207.124335,17.9656785 C208.665765,20.152737 212.209965,24.9954705 214.83,27.6511455 L207.43272,27.6511455 C206.97039,26.401419 206.04573,24.5268045 203.888025,21.0900195 L200.651715,16.0911135 L203.580135,12.3418845 C205.275015,10.1548755 207.586665,7.03051965 208.048995,5.62457016 L213.134625,5.62457016 C211.13136,6.8743026 207.586665,10.311048 206.662005,11.404602 L204.350355,13.904055 L207.124335,17.9656785 Z" id="Shape"></path>
                                <polygon id="Path" points="214.676055 33.2761758 53.938665 33.2761758 53.938665 35.4632107 214.676055 35.4632107"></polygon>
                            </g>
                        </g>
                    </g>
                </g>
            </g>
        </g>
    </g>
</svg>