<svg width="72" height="93" viewBox="0 0 72 93" fill="none" xmlns="http://www.w3.org/2000/svg">
<path d="M61.4285 87.3352V92.9889H63.2416V89.2247H69.8404V92.9889H71.6522V87.345L61.4285 87.3352Z" fill="#E82127"/>
<path d="M63.0396 85.5063H70.0113C70.9796 85.3138 71.6998 84.4593 71.9028 83.6326H61.1483C61.3493 84.4595 62.08 85.3138 63.0396 85.5063Z" fill="#E82127"/>
<path d="M55.9374 92.9925C56.8515 92.6049 57.3433 91.9346 57.5317 91.1502H49.3997L49.4048 83.6372L47.5819 83.6424V92.9925H55.9374Z" fill="#E82127"/>
<path d="M34.0261 85.4811H40.4647C41.4354 85.1991 42.2505 84.4596 42.4491 83.6399H32.2212V89.1654H40.5924V91.1044L34.0261 91.1095C32.9971 91.3965 32.1245 92.0874 31.6892 93.0001L32.2212 92.9903H42.3911V87.3283H34.0261V85.4811Z" fill="#E82127"/>
<path d="M18.1313 85.4988H25.1007C26.0703 85.3055 26.791 84.4517 26.993 83.6243H16.239C16.4398 84.4517 17.171 85.3055 18.1313 85.4988Z" fill="#E82127"/>
<path d="M18.1313 89.1943H25.1007C26.0703 89.0031 26.791 88.1485 26.993 87.3206H16.239C16.4398 88.1488 17.171 89.0031 18.1313 89.1943Z" fill="#E82127"/>
<path d="M18.1313 92.9914H25.1007C26.0703 92.7987 26.791 91.9444 26.993 91.1174H16.239C16.4398 91.9446 17.171 92.7987 18.1313 92.9914Z" fill="#E82127"/>
<path d="M0 83.647C0.209512 84.4641 0.917001 85.2993 1.88767 85.5086H4.82135L4.971 85.5677V92.9705H6.80294V85.5677L6.96936 85.5086H9.90562C10.8871 85.2557 11.5794 84.4641 11.7853 83.647V83.6289H0V83.647Z" fill="#E82127"/>
<path d="M35.955 65.1503L45.1085 13.6705C53.8335 13.6705 56.5855 14.6273 56.9829 18.5324C56.9829 18.5324 62.8358 16.3501 65.7878 11.9178C54.2682 6.57991 42.6937 6.33918 42.6937 6.33918L35.9398 14.5654L35.955 14.5643L29.2011 6.33789C29.2011 6.33789 17.6264 6.57888 6.1084 11.9168C9.05782 16.349 14.9131 18.5314 14.9131 18.5314C15.3127 14.626 18.0614 13.6693 26.7278 13.6631L35.955 65.1503Z" fill="#E82127"/>
<path d="M35.9514 3.96318C45.2633 3.89196 55.9218 5.4037 66.8329 10.1593C68.2913 7.53442 68.6662 6.37437 68.6662 6.37437C56.7387 1.65545 45.5688 0.040509 35.9501 0C26.3319 0.040509 15.1625 1.65571 3.23657 6.37437C3.23657 6.37437 3.76861 7.80328 5.06851 10.1593C15.9776 5.4037 26.6379 3.89196 35.9501 3.96318H35.9514Z" fill="#E82127"/>
</svg>
