<svg width="193" height="66" viewBox="0 0 193 66" fill="none" xmlns="http://www.w3.org/2000/svg">
<path d="M33 66C51.2254 66 66 51.2254 66 33C66 14.7746 51.2254 0 33 0C14.7746 0 0 14.7746 0 33C0 51.2254 14.7746 66 33 66Z" fill="#F0F0F0"/>
<path d="M6.82173 12.9089C4.22956 16.2815 2.27495 20.1687 1.13684 24.3915H18.3043L6.82173 12.9089Z" fill="#0052B4"/>
<path d="M64.8633 24.3914C63.7251 20.1687 61.7704 16.2815 59.1784 12.9089L47.696 24.3914H64.8633Z" fill="#0052B4"/>
<path d="M1.13684 41.6086C2.27508 45.8314 4.22969 49.7185 6.82173 53.091L18.3039 41.6086H1.13684Z" fill="#0052B4"/>
<path d="M53.0911 6.82174C49.7185 4.22957 45.8315 2.27496 41.6086 1.13672V18.3041L53.0911 6.82174Z" fill="#0052B4"/>
<path d="M12.9089 59.178C16.2815 61.7702 20.1687 63.7248 24.3914 64.863V47.6958L12.9089 59.178Z" fill="#0052B4"/>
<path d="M24.3913 1.13672C20.1685 2.27496 16.2814 4.22957 12.9089 6.82161L24.3913 18.3039V1.13672Z" fill="#0052B4"/>
<path d="M41.6088 64.863C45.8315 63.7248 49.7186 61.7702 53.0911 59.1781L41.6088 47.6958V64.863Z" fill="#0052B4"/>
<path d="M47.696 41.6086L59.1784 53.0911C61.7704 49.7186 63.7251 45.8314 64.8633 41.6086H47.696Z" fill="#0052B4"/>
<path d="M65.7207 28.6957H37.3046H37.3044V0.27934C35.8954 0.0959063 34.4588 0 33 0C31.5409 0 30.1046 0.0959063 28.6957 0.27934V28.6954V28.6956H0.27934C0.0959063 30.1046 0 31.5412 0 33C0 34.4591 0.0959063 35.8954 0.27934 37.3043H28.6954H28.6956V65.7207C30.1046 65.9041 31.5409 66 33 66C34.4588 66 35.8954 65.9042 37.3043 65.7207V37.3046V37.3044H65.7207C65.9041 35.8954 66 34.4591 66 33C66 31.5412 65.9041 30.1046 65.7207 28.6957Z" fill="#D80027"/>
<path d="M41.6088 41.609L56.3345 56.3348C57.0118 55.6577 57.6579 54.9499 58.2743 54.2162L45.667 41.6089H41.6088V41.609Z" fill="#D80027"/>
<path d="M24.3913 41.6089H24.391L9.66541 56.3345C10.3424 57.0118 11.0502 57.6578 11.784 58.2743L24.3913 45.6667V41.6089Z" fill="#D80027"/>
<path d="M24.3912 24.3914V24.3912L9.66549 9.66528C8.98822 10.3423 8.34214 11.0501 7.72571 11.7839L20.3331 24.3913H24.3912V24.3914Z" fill="#D80027"/>
<path d="M41.6088 24.3915L56.3346 9.66548C55.6576 8.98821 54.9498 8.34213 54.2161 7.72583L41.6088 20.3332V24.3915Z" fill="#D80027"/>
<path d="M98.9688 24.4531H94.25V39.0312C94.25 44 97.9219 47.375 103.703 47.375C109.469 47.375 113.141 44 113.141 39.0312V24.4531H108.422V38.5625C108.422 41.4531 106.719 43.3438 103.703 43.3438C100.672 43.3438 98.9688 41.4531 98.9688 38.5625V24.4531ZM116.047 40.5625C116.188 44.8125 119.766 47.375 125.141 47.375C130.781 47.375 134.234 44.5938 134.234 40.1875C134.234 36.7656 132.156 34.8438 127.391 33.8906L125 33.4062C122.344 32.875 121.25 32.0156 121.25 30.625C121.25 28.9688 122.812 27.875 125.141 27.875C127.516 27.875 129.188 29.0312 129.344 30.9531H133.797C133.719 26.8125 130.406 24.0625 125.141 24.0625C120.125 24.0625 116.531 26.7969 116.531 30.9219C116.531 34.2812 118.734 36.4375 123.234 37.3281L125.609 37.7969C128.438 38.375 129.5 39.2188 129.5 40.7031C129.5 42.3594 127.781 43.5781 125.266 43.5781C122.703 43.5781 120.797 42.4531 120.5 40.5625H116.047ZM142.484 47H147.156V24.4531H142.469L136.641 28.5V32.6875L142.391 28.7812H142.484V47ZM161.125 47.5C166.844 47.5 170.312 42.9531 170.312 35.6719C170.312 28.3906 166.812 23.9375 161.125 23.9375C155.438 23.9375 151.922 28.4062 151.922 35.6875C151.922 42.9844 155.406 47.5 161.125 47.5ZM161.125 43.7188C158.344 43.7188 156.719 40.8594 156.719 35.6875C156.719 30.5625 158.375 27.7188 161.125 27.7188C163.891 27.7188 165.516 30.5469 165.516 35.6875C165.516 40.8594 163.906 43.7188 161.125 43.7188ZM182.125 47.5C187.844 47.5 191.312 42.9531 191.312 35.6719C191.312 28.3906 187.812 23.9375 182.125 23.9375C176.438 23.9375 172.922 28.4062 172.922 35.6875C172.922 42.9844 176.406 47.5 182.125 47.5ZM182.125 43.7188C179.344 43.7188 177.719 40.8594 177.719 35.6875C177.719 30.5625 179.375 27.7188 182.125 27.7188C184.891 27.7188 186.516 30.5469 186.516 35.6875C186.516 40.8594 184.906 43.7188 182.125 43.7188Z" fill="#232425"/>
</svg>
