<svg width="130" height="52" viewBox="0 0 130 52" fill="none" xmlns="http://www.w3.org/2000/svg">
<path d="M57.21 19.4209C54.2351 19.4209 51.1336 21.5938 51.1336 21.5938V20.1968C51.1336 19.8908 51.011 19.768 50.7053 19.768H46.9083C46.6023 19.768 46.4185 19.9522 46.4185 20.1968V49.9799C46.4185 50.287 46.5412 50.4712 46.8475 50.4712H50.7056C50.9497 50.4712 51.1338 50.287 51.1338 49.9799V24.4864C51.1338 24.4864 52.9244 23.3509 55.099 23.3509C57.1697 23.3509 58.8045 24.3792 58.8045 26.4888C58.8045 27.9581 58.8045 49.9799 58.8045 49.9799C58.8045 50.287 58.9881 50.4712 59.2944 50.4712H63.0901C63.3964 50.4712 63.5186 50.2258 63.5186 49.9799V25.1538C63.5188 21.4148 61.2215 19.4209 57.21 19.4209Z" fill="#010202"/>
<path d="M86.7448 4.48161H82.9478C82.6415 4.48161 82.4577 4.66555 82.4577 4.91065V19.9358C81.0004 19.3759 79.6731 19.0803 78.6006 19.0803C72.4342 19.0803 68.2007 24.9797 68.2007 36.3237C68.2007 46.0422 72.3191 51.2542 77.6932 51.2542C79.9586 51.2542 81.8283 49.9552 83.1974 48.7365L84.0263 50.1426C84.1659 50.3859 84.2806 50.4691 84.5614 50.4691L86.7446 50.4716C86.9892 50.4716 87.1733 50.2874 87.1733 49.9804V4.91111C87.1737 4.60435 87.0508 4.48203 86.7448 4.48203V4.48161ZM73.2223 35.3206C73.2223 29.07 75.0504 22.8802 78.7834 22.8802C80.0478 22.8802 81.2625 23.2965 82.4582 24.247V46.2688C81.5233 46.7777 80.3465 47.2477 79.0751 47.2477C75.016 47.2474 73.2223 42.4291 73.2223 35.3206Z" fill="#010202"/>
<path d="M101.289 19.142C94.9665 19.142 91.8452 27.4199 91.8452 36.4286C91.8452 45.8575 96.2964 51.1426 102.02 51.1426C104.536 51.1426 107.039 50.1515 108.681 49.2387C108.933 49.0988 108.978 48.901 108.918 48.6577L108.438 46.6656C108.378 46.4221 108.256 46.3006 107.951 46.3006C107.817 46.3006 105.743 46.9079 103.725 46.9079C99.0412 46.9079 96.8934 42.7414 96.8934 37.2076C96.8934 36.4778 96.8934 35.8627 96.8934 35.8627C96.8934 35.8627 99.2214 36.185 100.62 36.185H109.456V33.6294C109.456 24.1943 106.155 19.142 101.289 19.142ZM100.985 32.3503C99.5867 32.3503 97.0413 32.6961 97.0413 32.6961C97.0413 32.6961 97.0753 31.6808 97.1973 30.7066C97.7446 25.5329 98.9778 22.9161 101.106 22.9161C102.957 22.9161 104.225 25.5938 104.53 30.281C104.59 31.2551 104.59 32.3505 104.59 32.3505H100.985V32.3503H100.985Z" fill="#010202"/>
<path d="M39.2067 23.0106C37.8027 20.2424 35.3018 19.0322 32.4371 19.0322C30.5966 19.0322 27.7246 19.7366 25.8064 20.5991C25.4312 20.768 25.1938 20.9166 25.1938 21.2121C25.1938 21.3878 25.2811 21.5897 25.3776 21.764L26.6698 24.533C26.8034 24.8457 27.0164 24.917 27.1927 24.917C27.3838 24.917 27.5393 24.8264 27.7109 24.7164C29.5818 23.5198 30.9525 22.862 32.0375 22.862C33.473 22.862 34.4477 23.8151 35.0488 25.248C35.6086 26.5833 35.8257 28.4284 35.8257 30.5601C35.8257 30.832 35.8267 31.1867 35.8267 31.1867C34.6476 30.4483 32.6051 30.0413 31.5856 30.0413C26.0997 30.0413 23.1411 35.2574 23.1411 40.8355C23.1411 46.8454 26.5988 51.2539 30.7539 51.2539C33.0681 51.2539 35.1629 49.8947 36.5659 48.1807C36.5659 48.1807 37.3129 49.9628 37.4104 50.1767C37.5086 50.3901 37.6124 50.4689 37.8932 50.4689L40.1136 50.4714C40.358 50.4714 40.542 50.2872 40.542 49.9802V32.7035C40.5414 28.4584 40.327 25.2198 39.2067 23.011V23.0106ZM35.8265 45.6452C34.7389 46.6963 33.4358 47.2474 32.2634 47.2474C31.0914 47.2474 30.1855 46.7055 29.4591 45.7021C28.5748 44.481 28.1625 42.6006 28.1625 40.5173C28.1625 37.2222 29.378 33.8412 31.9548 33.8412C33.2299 33.8412 34.6307 34.2565 35.8267 35.208V45.6452H35.8265Z" fill="#010202"/>
<path d="M129.507 19.7642C128.988 19.7642 126.501 19.7642 126.123 19.7642C125.745 19.7642 125.553 19.9625 125.455 20.2193C125.241 20.7824 123.81 24.5523 123.224 26.114C122.806 27.2297 121.68 30.4246 121.68 30.4246L121.549 30.4236C121.545 30.4124 120.72 28.0996 120.273 26.9414C119.912 26.0027 118.027 21.0327 117.788 20.4196C117.661 20.0905 117.518 19.7642 117.034 19.7642C116.379 19.7642 113.736 19.7642 113.329 19.7642C112.921 19.7642 112.691 20.2112 112.822 20.4886C112.954 20.7668 118.858 34.2232 118.858 34.2232C118.858 34.2232 112.518 49.2913 112.333 49.6296C112.147 49.9681 112.38 50.469 112.831 50.469C113.281 50.469 115.527 50.469 116.079 50.469C116.631 50.469 116.849 50.1791 117.015 49.7123C117.482 48.4041 118.176 46.5845 119.161 43.7726C119.812 41.9091 120.843 38.6385 120.843 38.6385H120.957C120.957 38.6385 122.086 41.9718 122.506 43.0618C123.567 45.8178 124.924 49.4178 125.068 49.798C125.218 50.1955 125.428 50.4692 125.807 50.4692C126.188 50.4692 129.124 50.4692 129.49 50.4692C129.854 50.4692 130.023 50.0529 129.851 49.6907C129.441 48.8269 125.944 40.3235 123.517 34.7335C123.517 34.7335 129.818 20.8165 129.941 20.4722C130.064 20.128 130.027 19.7642 129.508 19.7642H129.507Z" fill="#010202"/>
<path d="M26.976 2.28882e-05H22.7076C22.3296 2.28882e-05 22.0935 0.18578 22.0389 0.455078C21.9848 0.72543 15.6377 20.0927 15.1765 21.706C14.8494 22.8498 13.7829 26.8817 13.5271 27.8499L11.3197 21.8186C10.7833 20.1586 5.64234 5.78542 5.49153 5.21117C5.4084 4.89554 5.26352 4.5032 4.71075 4.5032H0.54352C0.136108 4.5032 -0.0945323 4.95047 0.0370427 5.22784C0.141793 5.45004 7.66929 25.4907 10.7102 33.1467V49.9797C10.7102 50.2867 10.833 50.4709 11.139 50.4709H15.0858C15.3304 50.4709 15.514 50.2867 15.514 49.9797V34.0228V33.2794C18.049 26.1943 27.3085 0.990042 27.4092 0.707993C27.5322 0.363244 27.496 2.28882e-05 26.976 2.28882e-05Z" fill="#E52620"/>
</svg>
